<mxfile host="app.diagrams.net" modified="2023-10-16T02:02:52.017Z" agent="Mozilla/5.0 (Windows NT 10.0; Win64; x64; rv:109.0) Gecko/20100101 Firefox/118.0" etag="DD6iU3hSDTj9dev_ZRDu" version="22.0.4" type="github">
  <diagram name="Page-1" id="AoVu0kHzCk6hEYIxmLdD">
    <mxGraphModel dx="1257" dy="671" grid="1" gridSize="10" guides="1" tooltips="1" connect="1" arrows="1" fold="1" page="1" pageScale="1" pageWidth="850" pageHeight="1100" math="0" shadow="0">
      <root>
        <mxCell id="0" />
        <mxCell id="1" parent="0" />
        <mxCell id="kuywIXCctSUW6cLbqUM8-14" style="edgeStyle=orthogonalEdgeStyle;rounded=0;orthogonalLoop=1;jettySize=auto;html=1;entryX=0.5;entryY=0;entryDx=0;entryDy=0;" edge="1" parent="1" source="kuywIXCctSUW6cLbqUM8-1" target="kuywIXCctSUW6cLbqUM8-2">
          <mxGeometry relative="1" as="geometry" />
        </mxCell>
        <mxCell id="kuywIXCctSUW6cLbqUM8-1" value="START" style="strokeWidth=2;html=1;shape=mxgraph.flowchart.terminator;whiteSpace=wrap;fillColor=#60a917;strokeColor=#2D7600;fontColor=#ffffff;" vertex="1" parent="1">
          <mxGeometry x="375" y="30" width="100" height="60" as="geometry" />
        </mxCell>
        <mxCell id="kuywIXCctSUW6cLbqUM8-2" value="MENGHITUNG LUAS SEGITIGA" style="shape=parallelogram;html=1;strokeWidth=2;perimeter=parallelogramPerimeter;whiteSpace=wrap;rounded=1;arcSize=12;size=0.23;fillColor=#e51400;fontColor=#ffffff;strokeColor=#B20000;" vertex="1" parent="1">
          <mxGeometry x="375" y="128" width="100" height="60" as="geometry" />
        </mxCell>
        <mxCell id="kuywIXCctSUW6cLbqUM8-5" style="edgeStyle=orthogonalEdgeStyle;rounded=0;orthogonalLoop=1;jettySize=auto;html=1;entryX=0.5;entryY=0;entryDx=0;entryDy=0;" edge="1" parent="1" source="kuywIXCctSUW6cLbqUM8-2" target="kuywIXCctSUW6cLbqUM8-11">
          <mxGeometry relative="1" as="geometry">
            <mxPoint x="420" y="241.98000000000002" as="targetPoint" />
          </mxGeometry>
        </mxCell>
        <mxCell id="kuywIXCctSUW6cLbqUM8-7" style="edgeStyle=orthogonalEdgeStyle;rounded=0;orthogonalLoop=1;jettySize=auto;html=1;" edge="1" parent="1" source="kuywIXCctSUW6cLbqUM8-6" target="kuywIXCctSUW6cLbqUM8-8">
          <mxGeometry relative="1" as="geometry">
            <mxPoint x="425" y="400" as="targetPoint" />
          </mxGeometry>
        </mxCell>
        <mxCell id="kuywIXCctSUW6cLbqUM8-6" value="LA=1/2 KALI ALAS KALI TINGGI" style="rounded=1;whiteSpace=wrap;html=1;absoluteArcSize=1;arcSize=14;strokeWidth=2;fillColor=#b1ddf0;strokeColor=#10739e;" vertex="1" parent="1">
          <mxGeometry x="390" y="360" width="100" height="100" as="geometry" />
        </mxCell>
        <mxCell id="kuywIXCctSUW6cLbqUM8-9" style="edgeStyle=orthogonalEdgeStyle;rounded=0;orthogonalLoop=1;jettySize=auto;html=1;" edge="1" parent="1" source="kuywIXCctSUW6cLbqUM8-8" target="kuywIXCctSUW6cLbqUM8-10">
          <mxGeometry relative="1" as="geometry">
            <mxPoint x="420" y="540" as="targetPoint" />
          </mxGeometry>
        </mxCell>
        <mxCell id="kuywIXCctSUW6cLbqUM8-8" value="LUAS SEGITIGA" style="shape=parallelogram;html=1;strokeWidth=2;perimeter=parallelogramPerimeter;whiteSpace=wrap;rounded=1;arcSize=12;size=0.23;fillColor=#e51400;fontColor=#ffffff;strokeColor=#B20000;" vertex="1" parent="1">
          <mxGeometry x="390" y="520" width="100" height="60" as="geometry" />
        </mxCell>
        <mxCell id="kuywIXCctSUW6cLbqUM8-10" value="FINISH" style="strokeWidth=2;html=1;shape=mxgraph.flowchart.terminator;whiteSpace=wrap;fillColor=#60a917;fontColor=#ffffff;strokeColor=#2D7600;" vertex="1" parent="1">
          <mxGeometry x="550" y="520" width="100" height="60" as="geometry" />
        </mxCell>
        <mxCell id="kuywIXCctSUW6cLbqUM8-11" value="&lt;div&gt;LA&lt;/div&gt;&lt;div&gt;1/2&lt;br&gt;&lt;/div&gt;&lt;div&gt;ALAS&lt;/div&gt;&lt;div&gt;TINGGI&lt;br&gt;&lt;/div&gt;" style="shape=parallelogram;html=1;strokeWidth=2;perimeter=parallelogramPerimeter;whiteSpace=wrap;rounded=1;arcSize=12;size=0.23;fillColor=#e51400;fontColor=#ffffff;strokeColor=#B20000;" vertex="1" parent="1">
          <mxGeometry x="375" y="230" width="100" height="60" as="geometry" />
        </mxCell>
        <mxCell id="kuywIXCctSUW6cLbqUM8-15" style="edgeStyle=orthogonalEdgeStyle;rounded=0;orthogonalLoop=1;jettySize=auto;html=1;entryX=0.35;entryY=-0.03;entryDx=0;entryDy=0;entryPerimeter=0;" edge="1" parent="1" source="kuywIXCctSUW6cLbqUM8-11" target="kuywIXCctSUW6cLbqUM8-6">
          <mxGeometry relative="1" as="geometry" />
        </mxCell>
      </root>
    </mxGraphModel>
  </diagram>
</mxfile>
